<?xml version="1.0" ?><svg id="Icons" style="enable-background:new 0 0 32 32;" version="1.1" viewBox="0 0 32 32" xml:space="preserve" xmlns="http://www.w3.org/2000/svg" xmlns:xlink="http://www.w3.org/1999/xlink"><style type="text/css">
	.st0{fill:none;stroke:#657786;stroke-width:2;stroke-linecap:round;stroke-linejoin:round;stroke-miterlimit:10;}
	.st1{fill:#657786;stroke:#000000;stroke-width:2;stroke-linejoin:round;stroke-miterlimit:10;}
</style><circle class="st0" cx="23" cy="15" r="6"/><path class="st0" d="M21.7,24L17,17v-2h-5.4C8.5,15,6,17.5,6,20.6V23H5.5C4.1,23,3,24.1,3,25.5S4.1,28,5.5,28H7c1.7,0,3-1.3,3-3v-2  h5l2.5,3.8c0.8,1.2,2.4,1.5,3.6,0.6C22.2,26.6,22.4,25.1,21.7,24z" fill="#657786"/><line class="st0" x1="11" x2="11" y1="15" y2="23"/><line class="st0" x1="6" x2="10" y1="23" y2="23" /><path class="st0" d="M27,5L27,5c0,1.8-1.2,3.3-2.9,3.7L23,9" fill="#657786"/><line class="st0" x1="25" x2="25" y1="14" y2="16"/></svg>