<?xml version="1.0" ?><!DOCTYPE svg  PUBLIC '-//W3C//DTD SVG 1.1//EN'  'http://www.w3.org/Graphics/SVG/1.1/DTD/svg11.dtd'><svg enable-background="new 0 0 512 512" height="512px" id="Layer_1" version="1.1" viewBox="0 0 512 512" width="512px" xml:space="preserve" xmlns="http://www.w3.org/2000/svg" xmlns:xlink="http://www.w3.org/1999/xlink"><g><path d="M313.475,232.455c0,31.954-25.866,57.909-57.899,57.909c-31.953,0-57.899-25.955-57.899-57.909   c0-31.989,25.946-57.899,57.899-57.899C287.608,174.556,313.475,200.466,313.475,232.455z" fill="#667580"/><path d="M417.921,443.777H99.369v-11.714c0-23.803-16.438-119.512-27.567-180.079l-19.947,15.259L4.545,211.117   L259.554,10.108l247.077,197.216l-49.845,55.781l-11.633-9.083c-11.068,60.222-27.365,154.877-27.276,177.996L417.921,443.777z    M122.187,420.348h272.855c4.306-49.534,29.473-183.436,30.615-189.63l3.562-18.954l24.723,19.344l18.68-20.93L259.464,40.024   L38.067,214.538l17.306,20.523l32.494-24.848l3.492,18.715C92.546,235.175,117.836,370.264,122.187,420.348z" fill="#667580"/><rect fill="#667580" height="30.482" width="130.27" x="190.436" y="468.314"/></g></svg>